TITLE ""
FILE "1Q_t_1168-1177.mp3" MP3
  TRACK 01 AUDIO
    TITLE "1Q_t_1168-1177_01"
    INDEX 01 00:00:00
  TRACK 02 AUDIO
    TITLE "1Q_t_1168-1177_02"
    INDEX 01 00:00:14
  TRACK 03 AUDIO
    TITLE "1Q_t_1168-1177_03"
    INDEX 01 00:01:37
  TRACK 04 AUDIO
    TITLE "1Q_t_1168-1177_04"
    INDEX 01 00:02:07
  TRACK 05 AUDIO
    TITLE "1Q_t_1168-1177_05"
    INDEX 01 00:03:22
  TRACK 06 AUDIO
    TITLE "1Q_t_1168-1177_06"
    INDEX 01 00:03:32
  TRACK 07 AUDIO
    TITLE "1Q_t_1168-1177_07"
    INDEX 01 00:06:03
  TRACK 08 AUDIO
    TITLE "1Q_t_1168-1177_08"
    INDEX 01 00:06:11
  TRACK 09 AUDIO
    TITLE "1Q_t_1168-1177_09"
    INDEX 01 00:11:24
  TRACK 10 AUDIO
    TITLE "1Q_t_1168-1177_10"
    INDEX 01 00:11:69
  TRACK 11 AUDIO
    TITLE "1Q_t_1168-1177_11"
    INDEX 01 00:13:27
  TRACK 12 AUDIO
    TITLE "1Q_t_1168-1177_12"
    INDEX 01 00:13:33
  TRACK 13 AUDIO
    TITLE "1Q_t_1168-1177_13"
    INDEX 01 00:15:45
  TRACK 14 AUDIO
    TITLE "1Q_t_1168-1177_14"
    INDEX 01 00:15:51
  TRACK 15 AUDIO
    TITLE "1Q_t_1168-1177_15"
    INDEX 01 00:19:59
  TRACK 16 AUDIO
    TITLE "1Q_t_1168-1177_16"
    INDEX 01 00:20:27
  TRACK 17 AUDIO
    TITLE "1Q_t_1168-1177_17"
    INDEX 01 00:21:50
  TRACK 18 AUDIO
    TITLE "1Q_t_1168-1177_18"
    INDEX 01 00:21:59
  TRACK 19 AUDIO
    TITLE "1Q_t_1168-1177_19"
    INDEX 01 00:24:48
  TRACK 20 AUDIO
    TITLE "1Q_t_1168-1177_20"
    INDEX 01 00:24:56
  TRACK 21 AUDIO
    TITLE "1Q_t_1168-1177_21"
    INDEX 01 00:29:30
  TRACK 22 AUDIO
    TITLE "1Q_t_1168-1177_22"
    INDEX 01 00:29:73
  TRACK 23 AUDIO
    TITLE "1Q_t_1168-1177_23"
    INDEX 01 00:31:13
  TRACK 24 AUDIO
    TITLE "1Q_t_1168-1177_24"
    INDEX 01 00:31:21
  TRACK 25 AUDIO
    TITLE "1Q_t_1168-1177_25"
    INDEX 01 00:33:37
  TRACK 26 AUDIO
    TITLE "1Q_t_1168-1177_26"
    INDEX 01 00:33:43
  TRACK 27 AUDIO
    TITLE "1Q_t_1168-1177_27"
    INDEX 01 00:37:66
  TRACK 28 AUDIO
    TITLE "1Q_t_1168-1177_28"
    INDEX 01 00:38:38
  TRACK 29 AUDIO
    TITLE "1Q_t_1168-1177_29"
    INDEX 01 00:39:57
  TRACK 30 AUDIO
    TITLE "1Q_t_1168-1177_30"
    INDEX 01 00:39:65
  TRACK 31 AUDIO
    TITLE "1Q_t_1168-1177_31"
    INDEX 01 00:43:18
  TRACK 32 AUDIO
    TITLE "1Q_t_1168-1177_32"
    INDEX 01 00:43:26
  TRACK 33 AUDIO
    TITLE "1Q_t_1168-1177_33"
    INDEX 01 00:46:28
  TRACK 34 AUDIO
    TITLE "1Q_t_1168-1177_34"
    INDEX 01 00:46:73
  TRACK 35 AUDIO
    TITLE "1Q_t_1168-1177_35"
    INDEX 01 00:48:15
  TRACK 36 AUDIO
    TITLE "1Q_t_1168-1177_36"
    INDEX 01 00:48:23
  TRACK 37 AUDIO
    TITLE "1Q_t_1168-1177_37"
    INDEX 01 00:49:50
  TRACK 38 AUDIO
    TITLE "1Q_t_1168-1177_38"
    INDEX 01 00:49:56
  TRACK 39 AUDIO
    TITLE "1Q_t_1168-1177_39"
    INDEX 01 00:54:24
  TRACK 40 AUDIO
    TITLE "1Q_t_1168-1177_40"
    INDEX 01 00:54:69
  TRACK 41 AUDIO
    TITLE "1Q_t_1168-1177_41"
    INDEX 01 00:55:74
  TRACK 42 AUDIO
    TITLE "1Q_t_1168-1177_42"
    INDEX 01 00:56:07
  TRACK 43 AUDIO
    TITLE "1Q_t_1168-1177_43"
    INDEX 01 00:58:45
  TRACK 44 AUDIO
    TITLE "1Q_t_1168-1177_44"
    INDEX 01 00:58:53
  TRACK 45 AUDIO
    TITLE "1Q_t_1168-1177_45"
    INDEX 01 01:04:59
  TRACK 46 AUDIO
    TITLE "1Q_t_1168-1177_46"
    INDEX 01 01:05:31
  TRACK 47 AUDIO
    TITLE "1Q_t_1168-1177_47"
    INDEX 01 01:06:48
  TRACK 48 AUDIO
    TITLE "1Q_t_1168-1177_48"
    INDEX 01 01:06:58
  TRACK 49 AUDIO
    TITLE "1Q_t_1168-1177_49"
    INDEX 01 01:09:21
  TRACK 50 AUDIO
    TITLE "1Q_t_1168-1177_50"
    INDEX 01 01:09:29
  TRACK 51 AUDIO
    TITLE "1Q_t_1168-1177_51"
    INDEX 01 01:14:07
  TRACK 52 AUDIO
    TITLE "1Q_t_1168-1177_52"
    INDEX 01 01:14:52
  TRACK 53 AUDIO
    TITLE "1Q_t_1168-1177_53"
    INDEX 01 01:15:69
  TRACK 54 AUDIO
    TITLE "1Q_t_1168-1177_54"
    INDEX 01 01:16:00
  TRACK 55 AUDIO
    TITLE "1Q_t_1168-1177_55"
    INDEX 01 01:17:25
  TRACK 56 AUDIO
    TITLE "1Q_t_1168-1177_56"
    INDEX 01 01:17:31
  TRACK 57 AUDIO
    TITLE "1Q_t_1168-1177_57"
    INDEX 01 01:21:01
  TRACK 58 AUDIO
    TITLE "1Q_t_1168-1177_58"
    INDEX 01 01:21:48
  TRACK 59 AUDIO
    TITLE "1Q_t_1168-1177_59"
    INDEX 01 01:22:57
  TRACK 60 AUDIO
    TITLE "1Q_t_1168-1177_60"
    INDEX 01 01:22:65
  TRACK 61 AUDIO
    TITLE "1Q_t_1168-1177_61"
    INDEX 01 01:26:35
  TRACK 62 AUDIO
    TITLE "1Q_t_1168-1177_62"
    INDEX 01 01:26:43
  TRACK 63 AUDIO
    TITLE "1Q_t_1168-1177_63"
    INDEX 01 01:31:05
